<svg width="37" height="8" viewBox="0 0 37 8" fill="none" xmlns="http://www.w3.org/2000/svg">
<path d="M1 3.5C0.723858 3.5 0.5 3.72386 0.5 4C0.5 4.27614 0.723858 4.5 1 4.5L1 3.5ZM36.3536 4.35355C36.5488 4.15829 36.5488 3.84171 36.3536 3.64645L33.1716 0.464465C32.9763 0.269203 32.6597 0.269203 32.4645 0.464465C32.2692 0.659727 32.2692 0.976309 32.4645 1.17157L35.2929 4L32.4645 6.82843C32.2692 7.02369 32.2692 7.34027 32.4645 7.53553C32.6597 7.73079 32.9763 7.73079 33.1716 7.53553L36.3536 4.35355ZM1 4.5L36 4.5L36 3.5L1 3.5L1 4.5Z" fill="black"/>
</svg>
