<svg width="19" height="11" viewBox="0 0 19 11" fill="none" xmlns="http://www.w3.org/2000/svg">
<g clip-path="url(#clip0_125_2118)">
<path d="M9.49581 11C9.30025 10.9944 9.12145 10.9554 8.95942 10.8828C8.79738 10.8102 8.64093 10.6986 8.49008 10.5479L0.360388 2.15982C0.120129 1.91984 -4.09836e-07 1.62405 -4.25205e-07 1.27245C-4.35451e-07 1.03805 0.0558737 0.825977 0.167622 0.636227C0.27937 0.440894 0.43023 0.287418 0.620202 0.1758C0.810174 0.0586004 1.0225 9.0898e-07 1.25717 8.98722e-07C1.60359 8.83579e-07 1.9081 0.131153 2.17071 0.393456L9.48743 7.97793L16.8125 0.393456C17.0807 0.131152 17.3852 1.93741e-07 17.7261 1.78843e-07C17.9663 1.68341e-07 18.1814 0.0585996 18.3714 0.1758C18.5614 0.287418 18.7122 0.440893 18.824 0.636226C18.9413 0.825976 19 1.03805 19 1.27245C19 1.62405 18.8771 1.91984 18.6312 2.15982L10.5015 10.5479C10.3507 10.7042 10.1942 10.8186 10.0322 10.8912C9.86458 10.9637 9.68578 11 9.49581 11Z" fill="black"/>
</g>
<defs>
<clipPath id="clip0_125_2118">
<rect width="19" height="11" fill="white"/>
</clipPath>
</defs>
</svg>
