<svg width="15" height="15" viewBox="0 0 15 15" fill="none" xmlns="http://www.w3.org/2000/svg">
<path fill-rule="evenodd" clip-rule="evenodd" d="M1.70714 0.292889C1.31661 -0.0976349 0.683448 -0.0976349 0.292924 0.292889C-0.0976006 0.683414 -0.0976006 1.31658 0.292924 1.7071L5.94977 7.36395L0.292906 13.0208C-0.0976191 13.4113 -0.0976182 14.0445 0.292906 14.435C0.68343 14.8255 1.31659 14.8255 1.70712 14.435L7.36398 8.77816L13.0208 14.435C13.4114 14.8255 14.0445 14.8255 14.4351 14.435C14.8256 14.0445 14.8256 13.4113 14.4351 13.0208L8.7782 7.36395L14.435 1.7071C14.8256 1.31658 14.8256 0.683414 14.435 0.292889C14.0445 -0.0976349 13.4114 -0.0976349 13.0208 0.292889L7.36398 5.94973L1.70714 0.292889Z" fill="black"/>
</svg>
