<svg width="42" height="17" viewBox="0 0 42 17" fill="none" xmlns="http://www.w3.org/2000/svg">
<g clip-path="url(#clip0_406_841)">
<path d="M1.21997 15.8199H41.03" stroke="black" stroke-width="0.8" stroke-linecap="round"/>
<path d="M2.99002 12.99C3.80188 12.99 4.46002 12.3319 4.46002 11.52C4.46002 10.7082 3.80188 10.05 2.99002 10.05C2.17816 10.05 1.52002 10.7082 1.52002 11.52C1.52002 12.3319 2.17816 12.99 2.99002 12.99Z" stroke="black" stroke-width="0.8" stroke-linecap="round"/>
<path d="M12.3 12.99C13.1118 12.99 13.77 12.3319 13.77 11.52C13.77 10.7082 13.1118 10.05 12.3 10.05C11.4881 10.05 10.83 10.7082 10.83 11.52C10.83 12.3319 11.4881 12.99 12.3 12.99Z" stroke="black" stroke-width="0.8" stroke-linecap="round"/>
<path d="M21.4001 12.99C22.2119 12.99 22.8701 12.3319 22.8701 11.52C22.8701 10.7082 22.2119 10.05 21.4001 10.05C20.5882 10.05 19.9301 10.7082 19.9301 11.52C19.9301 12.3319 20.5882 12.99 21.4001 12.99Z" stroke="black" stroke-width="0.8" stroke-linecap="round"/>
<path d="M30.49 12.99C31.3019 12.99 31.96 12.3319 31.96 11.52C31.96 10.7082 31.3019 10.05 30.49 10.05C29.6782 10.05 29.02 10.7082 29.02 11.52C29.02 12.3319 29.6782 12.99 30.49 12.99Z" stroke="black" stroke-width="0.8" stroke-linecap="round"/>
<path d="M39.56 12.99C40.3718 12.99 41.03 12.3319 41.03 11.52C41.03 10.7082 40.3718 10.05 39.56 10.05C38.7481 10.05 38.09 10.7082 38.09 11.52C38.09 12.3319 38.7481 12.99 39.56 12.99Z" stroke="black" stroke-width="0.8" stroke-linecap="round"/>
<path d="M1.19995 7.22998H41.0299" stroke="black" stroke-width="0.8" stroke-linecap="round"/>
<path d="M3.01004 4.14996C3.8219 4.14996 4.48004 3.49182 4.48004 2.67996C4.48004 1.8681 3.8219 1.20996 3.01004 1.20996C2.19818 1.20996 1.54004 1.8681 1.54004 2.67996C1.54004 3.49182 2.19818 4.14996 3.01004 4.14996Z" stroke="black" stroke-width="0.8" stroke-linecap="round"/>
<path d="M12.32 4.14996C13.1318 4.14996 13.79 3.49182 13.79 2.67996C13.79 1.8681 13.1318 1.20996 12.32 1.20996C11.5081 1.20996 10.85 1.8681 10.85 2.67996C10.85 3.49182 11.5081 4.14996 12.32 4.14996Z" stroke="black" stroke-width="0.8" stroke-linecap="round"/>
<path d="M21.42 4.14996C22.2318 4.14996 22.8899 3.49182 22.8899 2.67996C22.8899 1.8681 22.2318 1.20996 21.42 1.20996C20.6081 1.20996 19.95 1.8681 19.95 2.67996C19.95 3.49182 20.6081 4.14996 21.42 4.14996Z" stroke="black" stroke-width="0.8" stroke-linecap="round"/>
<path d="M30.51 4.14996C31.3219 4.14996 31.98 3.49182 31.98 2.67996C31.98 1.8681 31.3219 1.20996 30.51 1.20996C29.6982 1.20996 29.04 1.8681 29.04 2.67996C29.04 3.49182 29.6982 4.14996 30.51 4.14996Z" stroke="black" stroke-width="0.8" stroke-linecap="round"/>
<path d="M39.58 4.14996C40.3918 4.14996 41.05 3.49182 41.05 2.67996C41.05 1.8681 40.3918 1.20996 39.58 1.20996C38.7681 1.20996 38.11 1.8681 38.11 2.67996C38.11 3.49182 38.7681 4.14996 39.58 4.14996Z" stroke="black" stroke-width="0.8" stroke-linecap="round"/>
</g>
<defs>
<clipPath id="clip0_406_841">
<rect width="42" height="17" fill="white"/>
</clipPath>
</defs>
</svg>
