<svg width="21" height="19" viewBox="0 0 21 19" fill="none" xmlns="http://www.w3.org/2000/svg">
<path d="M10.4019 18.3017L18.0528 11.0833L19.0261 9.87542L19.027 9.87429C20.9753 7.4708 20.6677 3.8599 18.3504 1.83819L10.4019 18.3017ZM10.4019 18.3017L2.75804 11.0833L1.78467 9.87542L1.784 9.87458C-0.165208 7.46626 0.14011 3.85175 2.4598 1.83473L2.46001 1.83454C4.62327 -0.0485811 7.76165 0.0732717 9.77813 2.12361C9.77841 2.12389 9.77868 2.12417 9.77896 2.12445L10.0473 2.39983L10.4054 2.7673L10.7635 2.39983L11.0318 2.12445C11.0321 2.12417 11.0324 2.12389 11.0327 2.12361C13.0491 0.0733333 16.1872 -0.0485018 18.3504 1.83814L10.4019 18.3017Z" stroke="#999999"/>
</svg>
