<svg width="41" height="20" viewBox="0 0 41 20" fill="none" xmlns="http://www.w3.org/2000/svg">
<path d="M24 15.5C23.7239 15.5 23.5 15.7239 23.5 16C23.5 16.2761 23.7239 16.5 24 16.5L24 15.5ZM40.3536 16.3536C40.5488 16.1583 40.5488 15.8417 40.3536 15.6464L37.1716 12.4645C36.9763 12.2692 36.6597 12.2692 36.4645 12.4645C36.2692 12.6597 36.2692 12.9763 36.4645 13.1716L39.2929 16L36.4645 18.8284C36.2692 19.0237 36.2692 19.3403 36.4645 19.5355C36.6597 19.7308 36.9763 19.7308 37.1716 19.5355L40.3536 16.3536ZM24 16.5L40 16.5L40 15.5L24 15.5L24 16.5Z" fill="black"/>
<path d="M24 4.5C23.7239 4.5 23.5 4.72386 23.5 5C23.5 5.27614 23.7239 5.5 24 5.5L24 4.5ZM40.3536 5.35355C40.5488 5.15829 40.5488 4.84171 40.3536 4.64645L37.1716 1.46446C36.9763 1.2692 36.6597 1.2692 36.4645 1.46447C36.2692 1.65973 36.2692 1.97631 36.4645 2.17157L39.2929 5L36.4645 7.82843C36.2692 8.02369 36.2692 8.34027 36.4645 8.53553C36.6597 8.73079 36.9763 8.73079 37.1716 8.53553L40.3536 5.35355ZM24 5.5L40 5.5L40 4.5L24 4.5L24 5.5Z" fill="black"/>
<circle cx="10" cy="10" r="9.5" stroke="black" stroke-linecap="round"/>
</svg>
