<svg width="20" height="20" viewBox="0 0 20 20" fill="none" xmlns="http://www.w3.org/2000/svg">
<circle cx="10" cy="10" r="9.5" stroke="#999999" stroke-linecap="round"/>
<path d="M10.0291 14.0473C9.48256 14.0473 8.98256 13.9569 8.52907 13.776C8.07946 13.5912 7.71705 13.3256 7.44186 12.9792C7.16667 12.6289 7.01938 12.2075 7 11.7148V11.709L8.2093 11.7032V11.7148C8.24806 11.9611 8.33721 12.1824 8.47674 12.3788C8.61628 12.5751 8.81395 12.729 9.06977 12.8406C9.32558 12.9484 9.65116 13.0023 10.0465 13.0023C10.4496 13.0023 10.7771 12.9523 11.0291 12.8522C11.281 12.7483 11.4651 12.6078 11.5814 12.4307C11.7016 12.2537 11.7616 12.0535 11.7616 11.8303V11.8187C11.7616 11.5223 11.6609 11.2798 11.4593 11.0912C11.2578 10.9026 10.8779 10.7429 10.3198 10.612L9.45349 10.4099C8.96512 10.2945 8.55233 10.1424 8.21512 9.95381C7.87791 9.76135 7.62016 9.52463 7.44186 9.24365C7.26744 8.96266 7.18023 8.62779 7.18023 8.23903V8.22748C7.18023 7.76174 7.30426 7.35951 7.55233 7.02079C7.80039 6.68206 8.1376 6.42032 8.56395 6.23557C8.99419 6.05081 9.48256 5.95843 10.0291 5.95843C10.5678 5.95843 11.0504 6.05466 11.4767 6.24711C11.9031 6.43957 12.2422 6.70901 12.4942 7.05543C12.75 7.40185 12.8876 7.80985 12.907 8.27945L12.9012 8.28522L11.6977 8.29099V8.27945C11.6705 8.00616 11.5814 7.77521 11.4302 7.58661C11.2829 7.398 11.0891 7.25366 10.8488 7.15358C10.6085 7.0535 10.3372 7.00346 10.0349 7.00346C9.68217 7.00346 9.38566 7.05735 9.14535 7.16513C8.90504 7.26905 8.72287 7.40762 8.59884 7.58083C8.47868 7.75019 8.4186 7.93495 8.4186 8.1351V8.14665C8.4186 8.32371 8.46318 8.48537 8.55233 8.63164C8.64147 8.77406 8.78295 8.90108 8.97674 9.0127C9.17442 9.12433 9.43798 9.21863 9.76744 9.29561L10.6337 9.49769C11.4012 9.67475 11.9864 9.93457 12.3895 10.2771C12.7965 10.6159 13 11.0912 13 11.7032V11.7148C13 12.219 12.8643 12.6443 12.593 12.9908C12.3256 13.3372 11.9671 13.6008 11.5174 13.7818C11.0678 13.9588 10.5717 14.0473 10.0291 14.0473ZM9.68023 15V5H10.3721V15H9.68023Z" fill="#999999"/>
</svg>
