<svg width="42" height="21" viewBox="0 0 42 21" fill="none" xmlns="http://www.w3.org/2000/svg">
<path d="M5.65576 1C5.65576 0.723858 5.4319 0.5 5.15576 0.5C4.87962 0.5 4.65576 0.723858 4.65576 1L5.65576 1ZM4.80221 14.86C4.99747 15.0553 5.31405 15.0553 5.50932 14.86L8.6913 11.6781C8.88656 11.4828 8.88656 11.1662 8.6913 10.971C8.49603 10.7757 8.17945 10.7757 7.98419 10.971L5.15576 13.7994L2.32734 10.971C2.13207 10.7757 1.81549 10.7757 1.62023 10.971C1.42497 11.1662 1.42497 11.4828 1.62023 11.6781L4.80221 14.86ZM4.65576 1L4.65576 14.5065L5.65576 14.5065L5.65576 1L4.65576 1Z" fill="black"/>
<path d="M22.2793 1C22.2793 0.723858 22.0554 0.5 21.7793 0.5C21.5032 0.5 21.2793 0.723858 21.2793 1L22.2793 1ZM21.4257 14.86C21.621 15.0553 21.9376 15.0553 22.1329 14.86L25.3148 11.6781C25.5101 11.4828 25.5101 11.1662 25.3148 10.971C25.1196 10.7757 24.803 10.7757 24.6077 10.971L21.7793 13.7994L18.9509 10.971C18.7556 10.7757 18.439 10.7757 18.2438 10.971C18.0485 11.1662 18.0485 11.4828 18.2438 11.6781L21.4257 14.86ZM21.2793 1L21.2793 14.5065L22.2793 14.5065L22.2793 1L21.2793 1Z" fill="black"/>
<path d="M37.8638 1C37.8638 0.723858 37.6399 0.5 37.3638 0.5C37.0876 0.5 36.8638 0.723858 36.8638 1L37.8638 1ZM37.0102 14.86C37.2055 15.0553 37.5221 15.0553 37.7173 14.86L40.8993 11.6781C41.0946 11.4828 41.0946 11.1662 40.8993 10.971C40.704 10.7757 40.3875 10.7757 40.1922 10.971L37.3638 13.7994L34.5353 10.971C34.3401 10.7757 34.0235 10.7757 33.8282 10.971C33.633 11.1662 33.633 11.4828 33.8282 11.6781L37.0102 14.86ZM36.8638 1L36.8638 14.5065L37.8638 14.5065L37.8638 1L36.8638 1Z" fill="black"/>
<path d="M1 19.7014H41" stroke="black" stroke-linecap="round"/>
</svg>
