<svg width="15" height="15" viewBox="0 0 15 15" fill="none" xmlns="http://www.w3.org/2000/svg">
<path d="M12.6975 6.1604C12.6975 6.43654 12.9214 6.6604 13.1975 6.6604C13.4737 6.6604 13.6975 6.43654 13.6975 6.1604L12.6975 6.1604ZM2.30253 6.1604C2.30253 3.58472 4.58877 1.42601 7.50002 1.42601L7.50002 0.426006C4.11799 0.426006 1.30253 2.95432 1.30253 6.1604L2.30253 6.1604ZM7.50002 1.42601C10.4113 1.42601 12.6975 3.58473 12.6975 6.1604L13.6975 6.1604C13.6975 2.95432 10.8821 0.426006 7.50002 0.426006L7.50002 1.42601Z" fill="black"/>
<path d="M2.30249 8.83972C2.30249 8.56358 2.07863 8.33972 1.80249 8.33972C1.52635 8.33972 1.30249 8.56358 1.30249 8.83972L2.30249 8.83972ZM12.6975 8.83972C12.6975 11.4154 10.4112 13.5741 7.49998 13.5741L7.49998 14.5741C10.882 14.5741 13.6975 12.0458 13.6975 8.83972L12.6975 8.83972ZM7.49998 13.5741C4.58874 13.5741 2.30249 11.4154 2.30249 8.83972L1.30249 8.83972C1.30249 12.0458 4.11795 14.5741 7.49998 14.5741L7.49998 13.5741Z" fill="black"/>
<path d="M1.46532 6.594C1.43538 6.58506 1.40946 6.57148 1.38757 6.55327C1.36567 6.53505 1.34632 6.51084 1.3295 6.48065L0.434521 4.81088C0.407732 4.7628 0.401873 4.71077 0.416943 4.65481C0.42699 4.6175 0.444702 4.58604 0.470079 4.56044C0.495695 4.53395 0.525553 4.51573 0.559652 4.50579C0.593991 4.49495 0.629266 4.49436 0.665479 4.50402C0.718935 4.51828 0.760304 4.55169 0.789585 4.60425L1.59355 6.11264L3.04899 5.20695C3.10162 5.17624 3.15423 5.1679 3.20683 5.18193C3.2439 5.19182 3.27458 5.21 3.29888 5.23648C3.32341 5.26206 3.34011 5.2927 3.34898 5.32839C3.35895 5.36342 3.35892 5.39959 3.34887 5.4369C3.3338 5.49287 3.30215 5.53489 3.25393 5.56296L1.63989 6.56345C1.60991 6.58211 1.58087 6.59388 1.55275 6.59876C1.52378 6.60341 1.49463 6.60182 1.46532 6.594Z" fill="black" stroke="black" stroke-width="0.5"/>
<path d="M13.5347 8.30065C13.5646 8.30959 13.5905 8.32317 13.6124 8.34139C13.6343 8.3596 13.6537 8.38381 13.6705 8.414L14.5655 10.0838C14.5923 10.1319 14.5981 10.1839 14.5831 10.2398C14.573 10.2772 14.5553 10.3086 14.5299 10.3342C14.5043 10.3607 14.4744 10.3789 14.4403 10.3889C14.406 10.3997 14.3707 10.4003 14.3345 10.3906C14.2811 10.3764 14.2397 10.343 14.2104 10.2904L13.4064 8.78202L11.951 9.6877C11.8984 9.71841 11.8458 9.72675 11.7932 9.71272C11.7561 9.70283 11.7254 9.68465 11.7011 9.65818C11.6766 9.63259 11.6599 9.60195 11.651 9.56626C11.641 9.53123 11.6411 9.49506 11.6511 9.45775C11.6662 9.40179 11.6978 9.35977 11.7461 9.33169L13.3601 8.33121C13.3901 8.31254 13.4191 8.30077 13.4472 8.2959C13.4762 8.29125 13.5054 8.29283 13.5347 8.30065Z" fill="black" stroke="black" stroke-width="0.5"/>
</svg>
