<svg width="21" height="21" viewBox="0 0 21 21" fill="none" xmlns="http://www.w3.org/2000/svg">
<path d="M9.6428 20C9.39722 20 9.19177 19.9315 9.02647 19.7946C8.8659 19.6624 8.75727 19.4736 8.7006 19.2281L8.23304 17.2523C8.06774 17.1957 7.9048 17.1343 7.74422 17.0682C7.58837 17.0068 7.43724 16.9431 7.29083 16.877L5.56227 17.9463C5.35446 18.0785 5.1443 18.1328 4.93177 18.1092C4.71924 18.0903 4.53033 17.9959 4.36503 17.8259L3.1607 16.6291C2.99068 16.4592 2.89386 16.2656 2.87025 16.0485C2.85135 15.8313 2.91039 15.6188 3.04735 15.4111L4.10999 13.6974C4.04387 13.5463 3.98011 13.3928 3.91872 13.237C3.85732 13.0813 3.80065 12.9255 3.7487 12.7697L1.75802 12.3023C1.51715 12.2503 1.3306 12.1418 1.19836 11.9765C1.06612 11.8113 1 11.6059 1 11.3604V9.66791C1 9.42713 1.06612 9.22649 1.19836 9.06597C1.3306 8.90073 1.51715 8.78979 1.75802 8.73313L3.73453 8.25867C3.7912 8.08871 3.85024 7.92583 3.91163 7.77003C3.97775 7.61424 4.03915 7.46788 4.09582 7.33097L3.03318 5.58889C2.90094 5.38589 2.84191 5.17816 2.85608 4.96571C2.87497 4.75326 2.97179 4.56206 3.14653 4.3921L4.36503 3.18822C4.53505 3.02298 4.7216 2.93092 4.92468 2.91204C5.12777 2.88843 5.33321 2.938 5.54101 3.06075L7.28374 4.13716C7.43015 4.06162 7.58364 3.99317 7.74422 3.93179C7.9048 3.87042 8.06774 3.81141 8.23304 3.75475L8.7006 1.7719C8.75727 1.5264 8.8659 1.33756 9.02647 1.20537C9.19177 1.06846 9.39722 1 9.6428 1H11.3572C11.6028 1 11.8082 1.06846 11.9735 1.20537C12.1388 1.33756 12.2475 1.5264 12.2994 1.7719L12.767 3.76892C12.937 3.82557 13.0999 3.88458 13.2558 3.94596C13.4164 4.00733 13.5675 4.07343 13.7092 4.14424L15.459 3.06075C15.6668 2.938 15.8722 2.88843 16.0753 2.91204C16.2784 2.93564 16.465 3.02771 16.635 3.18822L17.8535 4.3921C18.0282 4.56206 18.1227 4.75326 18.1368 4.96571C18.1557 5.17816 18.0991 5.38589 17.9668 5.58889L16.9042 7.33097C16.9609 7.46788 17.0199 7.61424 17.0813 7.77003C17.1474 7.92583 17.2088 8.08871 17.2655 8.25867L19.242 8.73313C19.4876 8.78979 19.6741 8.90073 19.8016 9.06597C19.9339 9.22649 20 9.42713 20 9.66791V11.3604C20 11.6059 19.9339 11.8113 19.8016 11.9765C19.6741 12.1418 19.4876 12.2503 19.242 12.3023L17.2513 12.7697C17.1994 12.9255 17.1427 13.0813 17.0813 13.237C17.0199 13.3928 16.9561 13.5463 16.89 13.6974L17.9526 15.4111C18.0896 15.6188 18.1463 15.8313 18.1227 16.0485C18.1038 16.2656 18.0093 16.4592 17.8393 16.6291L16.635 17.8259C16.465 17.9959 16.2737 18.0903 16.0611 18.1092C15.8486 18.1328 15.6408 18.0785 15.4377 17.9463L13.7092 16.877C13.5628 16.9431 13.4093 17.0068 13.2487 17.0682C13.0928 17.1343 12.9323 17.1957 12.767 17.2523L12.2994 19.2281C12.2475 19.4736 12.1388 19.6624 11.9735 19.7946C11.8082 19.9315 11.6028 20 11.3572 20H9.6428ZM10.5071 13.7469C11.1022 13.7469 11.6453 13.6006 12.1365 13.3079C12.6276 13.0104 13.0196 12.6162 13.3125 12.1252C13.61 11.6295 13.7588 11.0842 13.7588 10.4894C13.7588 9.89924 13.61 9.35868 13.3125 8.86769C13.0196 8.37669 12.6276 7.98484 12.1365 7.69214C11.6453 7.39471 11.1022 7.24599 10.5071 7.24599C9.91201 7.24599 9.36652 7.39471 8.87062 7.69214C8.37944 7.98484 7.98509 8.37669 7.68755 8.86769C7.39473 9.35868 7.24832 9.89924 7.24832 10.4894C7.24832 11.0842 7.39473 11.6295 7.68755 12.1252C7.98509 12.6162 8.37944 13.0104 8.87062 13.3079C9.36652 13.6006 9.91201 13.7469 10.5071 13.7469Z" stroke="#979797"/>
</svg>
