<svg width="20" height="20" viewBox="0 0 20 20" fill="none" xmlns="http://www.w3.org/2000/svg">
<path fill-rule="evenodd" clip-rule="evenodd" d="M13.3072 18.8092C13.2072 19.4729 12.5874 20 11.8476 20H8.14874C7.40896 20 6.78915 19.4729 6.69918 18.7604L6.42926 16.9156C6.15934 16.7789 5.89942 16.6325 5.6395 16.4666L3.84005 17.1694C3.14026 17.4231 2.37049 17.1401 2.03059 16.5349L0.20115 13.4407C-0.148744 12.7965 0.0012105 12.0351 0.561041 11.6057L2.09058 10.4441C2.08058 10.2977 2.07058 10.1513 2.07058 9.99512C2.07058 9.84871 2.08058 9.69253 2.09058 9.54612L0.571038 8.38458C-0.0187834 7.94534 -0.168738 7.15471 0.20115 6.54954L2.05059 3.43582C2.39049 2.83065 3.16025 2.55735 3.84005 2.82089L5.6495 3.53343C5.90942 3.3675 6.16934 3.22108 6.42926 3.08443L6.69918 1.22011C6.78915 0.536847 7.40896 0 8.13874 0H11.8376C12.5774 0 13.1972 0.527086 13.2872 1.23963L13.5571 3.08443C13.827 3.22108 14.0869 3.3675 14.3469 3.53343L16.1463 2.83065C16.8561 2.57687 17.6259 2.85993 17.9658 3.4651L19.8052 6.56906C20.1651 7.21327 20.0051 7.97462 19.4453 8.4041L17.9258 9.56564C17.9358 9.71205 17.9458 9.85847 17.9458 10.0146C17.9458 10.1708 17.9358 10.3172 17.9258 10.4636L19.4453 11.6252C20.0051 12.0644 20.1651 12.8258 19.8152 13.4407L17.9558 16.5837C17.6159 17.1889 16.8461 17.4622 16.1563 17.1986L14.3569 16.4959C14.0969 16.6618 13.837 16.8082 13.5771 16.9449L13.3072 18.8092ZM8.6186 18.0478H11.3778L11.7476 15.5588L12.2775 15.3441C12.7174 15.1684 13.1572 14.9146 13.6171 14.5827L14.0669 14.2509L16.4462 15.1879L17.8258 12.8453L15.7964 11.3031L15.8664 10.7565L15.8695 10.7302C15.8984 10.4858 15.9264 10.2495 15.9264 9.99512C15.9264 9.73158 15.8964 9.47779 15.8664 9.23377L15.7964 8.68716L17.8258 7.14495L16.4362 4.80234L14.0469 5.73939L13.5971 5.39775C13.1772 5.08541 12.7273 4.83162 12.2675 4.64617L11.7476 4.43143L11.3778 1.94241H8.6186L8.24871 4.43143L7.71887 4.63641C7.279 4.82186 6.83913 5.06589 6.37927 5.40752L5.92941 5.72962L3.55013 4.80234L2.16056 7.13519L4.18994 8.6774L4.11996 9.22401C4.08997 9.47779 4.05998 9.74134 4.05998 9.99512C4.05998 10.2489 4.07997 10.5124 4.11996 10.7565L4.18994 11.3031L2.16056 12.8453L3.54014 15.1879L5.92941 14.2509L6.37927 14.5925C6.80914 14.9146 7.23901 15.1586 7.70887 15.3441L8.23871 15.5588L8.6186 18.0478ZM13.4971 9.99512C13.4971 11.8819 11.9306 13.4114 9.99818 13.4114C8.06577 13.4114 6.49924 11.8819 6.49924 9.99512C6.49924 8.10835 8.06577 6.57882 9.99818 6.57882C11.9306 6.57882 13.4971 8.10835 13.4971 9.99512Z" fill="#49454F"/>
</svg>
