<svg width="19" height="19" viewBox="0 0 19 19" fill="none" xmlns="http://www.w3.org/2000/svg">
<path d="M8.6428 19C8.39722 19 8.19177 18.9315 8.02647 18.7946C7.8659 18.6624 7.75727 18.4736 7.7006 18.2281L7.23304 16.2523C7.06774 16.1957 6.9048 16.1343 6.74422 16.0682C6.58837 16.0068 6.43724 15.9431 6.29083 15.877L4.56227 16.9463C4.35446 17.0785 4.1443 17.1328 3.93177 17.1092C3.71924 17.0903 3.53033 16.9959 3.36503 16.8259L2.1607 15.6291C1.99068 15.4592 1.89386 15.2656 1.87025 15.0485C1.85135 14.8313 1.91039 14.6188 2.04735 14.4111L3.10999 12.6974C3.04387 12.5463 2.98011 12.3928 2.91872 12.237C2.85732 12.0813 2.80065 11.9255 2.7487 11.7697L0.758016 11.3023C0.517151 11.2503 0.330599 11.1418 0.198359 10.9765C0.0661198 10.8113 0 10.6059 0 10.3604V8.66791C0 8.42713 0.0661198 8.22649 0.198359 8.06597C0.330599 7.90073 0.517151 7.78979 0.758016 7.73313L2.73453 7.25867C2.7912 7.08871 2.85024 6.92583 2.91163 6.77003C2.97775 6.61424 3.03915 6.46788 3.09582 6.33097L2.03318 4.58889C1.90094 4.38589 1.84191 4.17816 1.85608 3.96571C1.87497 3.75326 1.97179 3.56206 2.14653 3.3921L3.36503 2.18822C3.53505 2.02298 3.7216 1.93092 3.92468 1.91204C4.12777 1.88843 4.33321 1.938 4.54101 2.06075L6.28374 3.13716C6.43015 3.06162 6.58364 2.99317 6.74422 2.93179C6.9048 2.87042 7.06774 2.81141 7.23304 2.75475L7.7006 0.771897C7.75727 0.526401 7.8659 0.337557 8.02647 0.205367C8.19177 0.0684557 8.39722 0 8.6428 0H10.3572C10.6028 0 10.8082 0.0684557 10.9735 0.205367C11.1388 0.337557 11.2475 0.526401 11.2994 0.771897L11.767 2.76892C11.937 2.82557 12.0999 2.88458 12.2558 2.94596C12.4164 3.00733 12.5675 3.07343 12.7092 3.14424L14.459 2.06075C14.6668 1.938 14.8722 1.88843 15.0753 1.91204C15.2784 1.93564 15.465 2.02771 15.635 2.18822L16.8535 3.3921C17.0282 3.56206 17.1227 3.75326 17.1368 3.96571C17.1557 4.17816 17.0991 4.38589 16.9668 4.58889L15.9042 6.33097C15.9609 6.46788 16.0199 6.61424 16.0813 6.77003C16.1474 6.92583 16.2088 7.08871 16.2655 7.25867L18.242 7.73313C18.4876 7.78979 18.6741 7.90073 18.8016 8.06597C18.9339 8.22649 19 8.42713 19 8.66791V10.3604C19 10.6059 18.9339 10.8113 18.8016 10.9765C18.6741 11.1418 18.4876 11.2503 18.242 11.3023L16.2513 11.7697C16.1994 11.9255 16.1427 12.0813 16.0813 12.237C16.0199 12.3928 15.9561 12.5463 15.89 12.6974L16.9526 14.4111C17.0896 14.6188 17.1463 14.8313 17.1227 15.0485C17.1038 15.2656 17.0093 15.4592 16.8393 15.6291L15.635 16.8259C15.465 16.9959 15.2737 17.0903 15.0611 17.1092C14.8486 17.1328 14.6408 17.0785 14.4377 16.9463L12.7092 15.877C12.5628 15.9431 12.4093 16.0068 12.2487 16.0682C12.0928 16.1343 11.9323 16.1957 11.767 16.2523L11.2994 18.2281C11.2475 18.4736 11.1388 18.6624 10.9735 18.7946C10.8082 18.9315 10.6028 19 10.3572 19H8.6428ZM9.50708 12.7469C10.1022 12.7469 10.6453 12.6006 11.1365 12.3079C11.6276 12.0104 12.0196 11.6162 12.3125 11.1252C12.61 10.6295 12.7588 10.0842 12.7588 9.48938C12.7588 8.89924 12.61 8.35868 12.3125 7.86769C12.0196 7.37669 11.6276 6.98484 11.1365 6.69214C10.6453 6.39471 10.1022 6.24599 9.50708 6.24599C8.91201 6.24599 8.36652 6.39471 7.87062 6.69214C7.37944 6.98484 6.98509 7.37669 6.68755 7.86769C6.39473 8.35868 6.24832 8.89924 6.24832 9.48938C6.24832 10.0842 6.39473 10.6295 6.68755 11.1252C6.98509 11.6162 7.37944 12.0104 7.87062 12.3079C8.36652 12.6006 8.91201 12.7469 9.50708 12.7469Z" fill="black"/>
</svg>
