<svg width="42" height="18" viewBox="0 0 42 18" fill="none" xmlns="http://www.w3.org/2000/svg">
<g clip-path="url(#clip0_358_799)">
<path d="M19.3799 10.4501C19.3799 10.4501 17.0799 11.5501 14.9399 11.4901C12.7999 11.4301 9.2199 10.7301 8.1499 10.3401C7.0699 9.9401 4.2699 9.3901 3.4399 8.4501C2.6099 7.5101 2.5799 5.8901 3.9499 4.7401C5.3099 3.5801 12.8299 0.8401 17.0299 1.2101C21.2299 1.5801 22.6099 2.5901 22.3099 3.9501C22.0099 5.3101 20.7099 9.3201 20.5299 9.4801C20.3499 9.6401 20.3199 10.1101 19.3799 10.4501Z" stroke="black" stroke-width="0.8" stroke-miterlimit="10"/>
<path d="M30.67 3.67004C30.67 3.67004 31.11 4.82004 30.8 6.63004C30.49 8.45004 29.58 10.27 29.58 10.27C29.58 10.27 31.94 11.28 33.64 11.44C36.97 11.75 38.43 10.6 38.92 8.58004C39.41 6.56004 38.17 4.70004 35.12 4.00004C33.17 3.55004 30.67 3.67004 30.67 3.67004Z" stroke="black" stroke-width="0.8" stroke-linecap="round" stroke-linejoin="round"/>
<path d="M1.18994 15.0401V17.0101H1.42994H40.7499H41.0399V14.8301" stroke="black" stroke-width="0.8" stroke-linecap="round" stroke-linejoin="round"/>
<path d="M16.46 14.8301V17.0101" stroke="black" stroke-width="0.8" stroke-miterlimit="10" stroke-linecap="round"/>
<path d="M24.88 14.8301V17.0101" stroke="black" stroke-width="0.8" stroke-miterlimit="10" stroke-linecap="round"/>
<path d="M8.40001 14.8101L8.39001 16.9601" stroke="black" stroke-width="0.8" stroke-miterlimit="10" stroke-linecap="round"/>
<path d="M33.5699 14.8301V17.0101" stroke="black" stroke-width="0.8" stroke-miterlimit="10" stroke-linecap="round"/>
</g>
<defs>
<clipPath id="clip0_358_799">
<rect width="42" height="18" fill="white"/>
</clipPath>
</defs>
</svg>
