<svg width="42" height="18" viewBox="0 0 42 18" fill="none" xmlns="http://www.w3.org/2000/svg">
<path d="M22.32 11.52H12.75" stroke="black" stroke-width="0.38" stroke-linecap="round" stroke-linejoin="round"/>
<path d="M19.74 9.71012C19.68 9.80012 19.71 9.91012 19.8 9.97012L22.23 11.5201L19.8 13.0701C19.71 13.1301 19.69 13.2401 19.74 13.3301C19.8 13.4201 19.91 13.4401 20 13.3901L22.68 11.6801C22.73 11.6501 22.77 11.5901 22.77 11.5201C22.77 11.4501 22.74 11.4001 22.68 11.3601L20 9.65012C20 9.65012 19.93 9.62012 19.9 9.62012C19.84 9.62012 19.78 9.65012 19.74 9.71012Z" fill="black"/>
<path d="M4.6 16.5301C3.82 16.5301 3.14 16.4301 2.56 16.2201C1.98 16.0101 1.46 15.7101 1 15.3201L1.29 14.8201C1.63 15.0901 1.96 15.3001 2.27 15.4701C2.58 15.6401 2.92 15.7601 3.3 15.8401C3.67 15.9201 4.1 15.9601 4.59 15.9601C5.49 15.9601 6.17 15.7801 6.64 15.4201C7.1 15.0601 7.34 14.5701 7.34 13.9701C7.34 13.4601 7.18 13.0601 6.85 12.7901C6.52 12.5101 5.97 12.3001 5.18 12.1401L3.82 11.8601C2.93 11.6801 2.27 11.3901 1.84 10.9901C1.41 10.6001 1.19 10.0501 1.19 9.3501C1.19 8.8001 1.33 8.3201 1.62 7.9001C1.9 7.4901 2.3 7.1701 2.8 6.9401C3.31 6.7101 3.89 6.6001 4.56 6.6001C5.23 6.6001 5.86 6.7101 6.42 6.9201C6.98 7.1301 7.46 7.4501 7.87 7.8701L7.59 8.3701C7.14 7.9401 6.68 7.6301 6.2 7.4501C5.72 7.2701 5.18 7.1701 4.56 7.1701C3.71 7.1701 3.04 7.3701 2.54 7.7601C2.04 8.1501 1.79 8.6901 1.79 9.3601C1.79 9.9001 1.95 10.3201 2.27 10.6201C2.59 10.9201 3.11 11.1401 3.83 11.2901L5.21 11.5701C6.17 11.7601 6.86 12.0401 7.3 12.4001C7.74 12.7601 7.95 13.2801 7.95 13.9601C7.95 14.4701 7.82 14.9101 7.55 15.3001C7.28 15.6901 6.9 15.9901 6.4 16.2101C5.9 16.4301 5.3 16.5301 4.62 16.5301H4.6Z" fill="black"/>
<path d="M9.93994 16.4202V6.71021H10.5199V16.4202H9.93994Z" fill="black"/>
<path d="M25.6801 16.36V15.83H27.9801V7.29002H28.3501L25.8901 8.89002V8.25002L28.1301 6.77002H28.5501V15.83H30.7101V16.36H25.6801Z" fill="black"/>
<path d="M35.9901 16.4699C34.9401 16.4699 34.1301 16.0499 33.5701 15.2199C33.0101 14.3899 32.7301 13.1699 32.7301 11.5799C32.7301 9.98993 33.0101 8.73993 33.5701 7.91993C34.1301 7.08993 34.9401 6.67993 35.9901 6.67993C37.0401 6.67993 37.8601 7.08993 38.4201 7.91993C38.9801 8.74993 39.2601 9.96993 39.2601 11.5699C39.2601 13.1699 38.9801 14.3899 38.4201 15.2299C37.8601 16.0599 37.0501 16.4799 36.0001 16.4799L35.9901 16.4699ZM35.9901 15.9099C36.8801 15.9099 37.5401 15.5499 37.9801 14.8399C38.4201 14.1299 38.6401 13.0299 38.6401 11.5599C38.6401 10.0899 38.4201 8.97993 37.9801 8.27993C37.5401 7.57993 36.8801 7.22993 35.9901 7.22993C35.1001 7.22993 34.4501 7.58993 34.0001 8.29993C33.5601 9.00993 33.3301 10.0999 33.3301 11.5699C33.3301 13.0399 33.5501 14.1399 34.0001 14.8499C34.4401 15.5599 35.1101 15.9199 35.9901 15.9199V15.9099Z" fill="black"/>
<path d="M37.66 4.9L39.34 2.79V2.99L37.74 1H38.15L39.51 2.72H39.39L40.75 1H41.16L39.59 2.97V2.82L41.25 4.9H40.83L39.39 3.07H39.51L38.05 4.9H37.64H37.66Z" fill="black"/>
</svg>
