<svg width="42" height="78" viewBox="0 0 42 78" fill="none" xmlns="http://www.w3.org/2000/svg">
<path d="M1 59V77H41V59" stroke="black" stroke-linecap="round" stroke-linejoin="round"/>
<path d="M17.3677 6.29948L20.7693 0.933832L24.1709 6.29948C25.3344 8.13477 25.0692 10.5316 23.5326 12.0681C22.0065 13.5943 19.5321 13.5943 18.0059 12.0681C16.4694 10.5316 16.2042 8.13477 17.3677 6.29948Z" stroke="black" stroke-linecap="round"/>
<path d="M17.3677 25.2995L20.7693 19.9338L24.1709 25.2995C25.3344 27.1348 25.0692 29.5316 23.5326 31.0681C22.0065 32.5943 19.5321 32.5943 18.0059 31.0681C16.4694 29.5316 16.2042 27.1348 17.3677 25.2995Z" stroke="black" stroke-linecap="round"/>
<path d="M17.3677 45.2995L20.7693 39.9338L24.1709 45.2995C25.3344 47.1348 25.0692 49.5316 23.5326 51.0681C22.0065 52.5943 19.5321 52.5943 18.0059 51.0681C16.4694 49.5316 16.2042 47.1348 17.3677 45.2995Z" stroke="black" stroke-linecap="round"/>
<path d="M17.3677 65.2995L20.7693 59.9338L24.1709 65.2995C25.3344 67.1348 25.0692 69.5316 23.5326 71.0681C22.0065 72.5943 19.5321 72.5943 18.0059 71.0681C16.4694 69.5316 16.2042 67.1348 17.3677 65.2995Z" stroke="black" stroke-linecap="round"/>
</svg>
