<svg width="41" height="22" viewBox="0 0 41 22" fill="none" xmlns="http://www.w3.org/2000/svg">
<path d="M24.5 18C24.5 18.2761 24.7239 18.5 25 18.5C25.2761 18.5 25.5 18.2761 25.5 18L24.5 18ZM25.3536 1.64645C25.1583 1.45118 24.8417 1.45118 24.6464 1.64645L21.4645 4.82843C21.2692 5.02369 21.2692 5.34027 21.4645 5.53553C21.6597 5.7308 21.9763 5.7308 22.1716 5.53553L25 2.70711L27.8284 5.53553C28.0237 5.7308 28.3403 5.7308 28.5355 5.53553C28.7308 5.34027 28.7308 5.02369 28.5355 4.82843L25.3536 1.64645ZM25.5 18L25.5 2L24.5 2L24.5 18L25.5 18Z" fill="black"/>
<path d="M6 4V16.5" stroke="black" stroke-linecap="round"/>
<path d="M37.5 2C37.5 1.72386 37.2761 1.5 37 1.5C36.7239 1.5 36.5 1.72386 36.5 2L37.5 2ZM36.6464 18.3536C36.8417 18.5488 37.1583 18.5488 37.3535 18.3536L40.5355 15.1716C40.7308 14.9763 40.7308 14.6597 40.5355 14.4645C40.3403 14.2692 40.0237 14.2692 39.8284 14.4645L37 17.2929L34.1716 14.4645C33.9763 14.2692 33.6597 14.2692 33.4645 14.4645C33.2692 14.6597 33.2692 14.9763 33.4645 15.1716L36.6464 18.3536ZM36.5 2L36.5 18L37.5 18L37.5 2L36.5 2Z" fill="black"/>
<mask id="path-4-inside-1_129_1490" fill="white">
<path fill-rule="evenodd" clip-rule="evenodd" d="M6 0C4.34315 0 3 1.34315 3 3V10.8027C1.2066 11.8401 0 13.7792 0 16C0 19.3137 2.68629 22 6 22C9.31371 22 12 19.3137 12 16C12 13.7792 10.7934 11.8401 9 10.8027V3C9 1.34315 7.65685 0 6 0Z"/>
</mask>
<path d="M3 10.8027L3.50073 11.6683L4 11.3795V10.8027H3ZM9 10.8027H8V11.3795L8.49927 11.6683L9 10.8027ZM4 3C4 1.89543 4.89543 1 6 1V-1C3.79086 -1 2 0.790862 2 3H4ZM4 10.8027V3H2V10.8027H4ZM1 16C1 14.1506 2.00361 12.5343 3.50073 11.6683L2.49927 9.93709C0.409579 11.1459 -1 13.4078 -1 16H1ZM6 21C3.23858 21 1 18.7614 1 16H-1C-1 19.866 2.13401 23 6 23V21ZM11 16C11 18.7614 8.76142 21 6 21V23C9.86599 23 13 19.866 13 16H11ZM8.49927 11.6683C9.99639 12.5343 11 14.1506 11 16H13C13 13.4078 11.5904 11.1459 9.50073 9.93709L8.49927 11.6683ZM8 3V10.8027H10V3H8ZM6 1C7.10457 1 8 1.89543 8 3H10C10 0.790861 8.20914 -1 6 -1V1Z" fill="black" mask="url(#path-4-inside-1_129_1490)"/>
<circle cx="6" cy="16" r="2" fill="black"/>
</svg>
