<svg width="42" height="21" viewBox="0 0 42 21" fill="none" xmlns="http://www.w3.org/2000/svg">
<g clip-path="url(#clip0_358_733)">
<path d="M39.1 19.27C40.1272 19.27 40.96 18.4373 40.96 17.41C40.96 16.3828 40.1272 15.55 39.1 15.55C38.0727 15.55 37.24 16.3828 37.24 17.41C37.24 18.4373 38.0727 19.27 39.1 19.27Z" stroke="black" stroke-width="0.8" stroke-miterlimit="10"/>
<path d="M37.24 17.3999L3.25 17.4399" stroke="black" stroke-width="0.8" stroke-linecap="round" stroke-linejoin="round"/>
<path d="M3.04004 1.48999V19.31" stroke="black" stroke-width="0.8" stroke-linecap="round" stroke-linejoin="round"/>
<path d="M0.0772794 5.95258C0.214007 6.04373 0.411502 5.99815 0.502654 5.86143L3.03971 1.88113L5.57677 5.84623C5.66792 5.98296 5.86541 6.02854 6.00214 5.93739C6.13887 5.84623 6.18445 5.64874 6.09329 5.51201L3.29797 1.13673C3.23721 1.04558 3.14605 1 3.03971 1C2.93337 1 2.84222 1.06077 2.78145 1.13673L-0.0138724 5.5272C-0.0138724 5.5272 -0.0594482 5.63355 -0.0594482 5.69431C-0.0594482 5.80066 -0.0138724 5.89181 0.0772794 5.95258Z" fill="black"/>
</g>
<defs>
<clipPath id="clip0_358_733">
<rect width="42" height="21" fill="white"/>
</clipPath>
</defs>
</svg>
