<svg width="17" height="19" viewBox="0 0 17 19" fill="none" xmlns="http://www.w3.org/2000/svg">
<path d="M5.57812 15.813C5.42318 15.813 5.29867 15.7687 5.20459 15.6802C5.11051 15.5916 5.06071 15.4727 5.05518 15.3232L4.80615 6.44971C4.80062 6.30583 4.84489 6.18962 4.93896 6.10107C5.03857 6.007 5.16585 5.95996 5.3208 5.95996C5.47021 5.95996 5.59196 6.00423 5.68604 6.09277C5.78564 6.18131 5.83545 6.29753 5.83545 6.44141L6.09277 15.3232C6.09277 15.4671 6.04574 15.5861 5.95166 15.6802C5.85758 15.7687 5.73307 15.813 5.57812 15.813ZM8.03516 15.813C7.88021 15.813 7.75293 15.7687 7.65332 15.6802C7.55371 15.5861 7.50391 15.4671 7.50391 15.3232V6.44971C7.50391 6.30583 7.55371 6.18962 7.65332 6.10107C7.75293 6.007 7.88021 5.95996 8.03516 5.95996C8.19564 5.95996 8.32568 6.007 8.42529 6.10107C8.5249 6.18962 8.57471 6.30583 8.57471 6.44971V15.3232C8.57471 15.4671 8.5249 15.5861 8.42529 15.6802C8.32568 15.7687 8.19564 15.813 8.03516 15.813ZM10.5005 15.813C10.34 15.813 10.2127 15.7687 10.1187 15.6802C10.0246 15.5861 9.98031 15.4671 9.98584 15.3232L10.2349 6.44971C10.2404 6.30029 10.2902 6.18131 10.3843 6.09277C10.4784 6.00423 10.6001 5.95996 10.7495 5.95996C10.91 5.95996 11.0373 6.007 11.1313 6.10107C11.2254 6.18962 11.2697 6.30583 11.2642 6.44971L11.0151 15.3232C11.0096 15.4727 10.9598 15.5916 10.8657 15.6802C10.7716 15.7687 10.6499 15.813 10.5005 15.813ZM4.39111 3.79346V1.93408C4.39111 1.33643 4.57373 0.866048 4.93896 0.522949C5.30973 0.174316 5.81331 0 6.44971 0H9.604C10.2404 0 10.7412 0.174316 11.1064 0.522949C11.4772 0.866048 11.6626 1.33643 11.6626 1.93408V3.79346H10.3428V2.01709C10.3428 1.78467 10.2653 1.59652 10.1104 1.45264C9.96094 1.30876 9.76172 1.23682 9.5127 1.23682H6.54102C6.29199 1.23682 6.09001 1.30876 5.93506 1.45264C5.78564 1.59652 5.71094 1.78467 5.71094 2.01709V3.79346H4.39111ZM0.622559 4.45752C0.456543 4.45752 0.309896 4.39665 0.182617 4.2749C0.0608724 4.14762 0 3.99821 0 3.82666C0 3.66064 0.0608724 3.51676 0.182617 3.39502C0.309896 3.26774 0.456543 3.2041 0.622559 3.2041H15.4561C15.6221 3.2041 15.766 3.26497 15.8877 3.38672C16.0094 3.50846 16.0703 3.65511 16.0703 3.82666C16.0703 3.99821 16.0094 4.14762 15.8877 4.2749C15.7715 4.39665 15.6276 4.45752 15.4561 4.45752H0.622559ZM4.2334 18.4858C3.63574 18.4858 3.15153 18.3088 2.78076 17.9546C2.41553 17.606 2.21908 17.1328 2.19141 16.5352L1.60205 4.2998H2.90527L3.49463 16.3857C3.5057 16.6292 3.59147 16.8312 3.75195 16.9917C3.91243 17.1522 4.11165 17.2324 4.34961 17.2324H11.7124C11.9559 17.2324 12.1579 17.1522 12.3184 16.9917C12.4788 16.8368 12.5646 16.6348 12.5757 16.3857L13.1318 4.2998H14.4683L13.8872 16.5269C13.8595 17.1245 13.6603 17.6004 13.2896 17.9546C12.9188 18.3088 12.4373 18.4858 11.8452 18.4858H4.2334Z" fill="#FF5F57"/>
</svg>
