<svg width="19" height="18" viewBox="0 0 19 18" fill="none" xmlns="http://www.w3.org/2000/svg">
<path d="M4.5 1C4.5 0.723858 4.27614 0.5 4 0.5C3.72386 0.5 3.5 0.723858 3.5 1L4.5 1ZM3.64645 17.3536C3.84171 17.5488 4.15829 17.5488 4.35355 17.3536L7.53553 14.1716C7.7308 13.9763 7.7308 13.6597 7.53553 13.4645C7.34027 13.2692 7.02369 13.2692 6.82843 13.4645L4 16.2929L1.17157 13.4645C0.976311 13.2692 0.659729 13.2692 0.464467 13.4645C0.269204 13.6597 0.269204 13.9763 0.464467 14.1716L3.64645 17.3536ZM3.5 1L3.5 17L4.5 17L4.5 1L3.5 1Z" fill="black"/>
<path d="M14.5 17C14.5 17.2761 14.7239 17.5 15 17.5C15.2761 17.5 15.5 17.2761 15.5 17L14.5 17ZM15.3536 0.646446C15.1583 0.451183 14.8417 0.451183 14.6464 0.646446L11.4645 3.82843C11.2692 4.02369 11.2692 4.34027 11.4645 4.53553C11.6597 4.7308 11.9763 4.7308 12.1716 4.53553L15 1.70711L17.8284 4.53553C18.0237 4.7308 18.3403 4.7308 18.5355 4.53553C18.7308 4.34027 18.7308 4.02369 18.5355 3.82843L15.3536 0.646446ZM15.5 17L15.5 1L14.5 1L14.5 17L15.5 17Z" fill="black"/>
</svg>
