<svg width="15" height="8" viewBox="0 0 15 8" fill="none" xmlns="http://www.w3.org/2000/svg">
<path d="M15 3.69481C14.9988 4.67438 14.6092 5.61349 13.9165 6.30615C13.2239 6.99881 12.2848 7.38846 11.3052 7.38963C10.7268 7.38988 10.1568 7.25232 9.64219 6.98833C9.12761 6.72435 8.68335 6.34155 8.3462 5.87164C8.30558 5.81617 8.27629 5.75324 8.25998 5.68644C8.24369 5.61965 8.2407 5.5503 8.2512 5.48235C8.26171 5.4144 8.28549 5.34918 8.32119 5.29043C8.3569 5.23167 8.40383 5.18052 8.4593 5.1399C8.51478 5.09928 8.57771 5.06998 8.6445 5.05368C8.7113 5.03738 8.78065 5.0344 8.8486 5.0449C8.91654 5.0554 8.98176 5.07919 9.04052 5.11489C9.09927 5.1506 9.15042 5.19753 9.19104 5.253C9.43145 5.58964 9.74863 5.86413 10.1163 6.05371C10.484 6.24329 10.8915 6.3425 11.3052 6.34312C12.0076 6.34312 12.6812 6.0641 13.1778 5.56745C13.6745 5.07079 13.9535 4.39719 13.9535 3.69481C13.9535 2.99244 13.6745 2.31883 13.1778 1.82218C12.6812 1.32553 12.0076 1.04651 11.3052 1.04651C10.8156 1.04796 10.3346 1.17547 9.90859 1.41676C9.48257 1.65805 9.12588 2.00499 8.87286 2.42415L7.02512 5.50372C6.67854 6.07746 6.19011 6.55233 5.60684 6.88263C5.02357 7.21292 4.36511 7.38753 3.69481 7.38963C2.71489 7.38963 1.7751 7.00035 1.08219 6.30744C0.389274 5.61453 0 4.67474 0 3.69481C0 2.71489 0.389274 1.7751 1.08219 1.08219C1.7751 0.389274 2.71489 3.51496e-07 3.69481 3.51496e-07C4.27315 -0.00025379 4.84323 0.13731 5.35781 0.401293C5.87239 0.665276 6.31665 1.04808 6.6538 1.51799C6.69442 1.57346 6.72371 1.63639 6.74001 1.70319C6.75631 1.76998 6.7593 1.83933 6.7488 1.90728C6.73829 1.97523 6.71451 2.04044 6.6788 2.0992C6.6431 2.15796 6.59617 2.20911 6.5407 2.24973C6.48522 2.29035 6.42229 2.31965 6.3555 2.33595C6.2887 2.35225 6.21935 2.35523 6.1514 2.34473C6.08345 2.33422 6.01824 2.31044 5.95948 2.27474C5.90073 2.23903 5.84958 2.1921 5.80896 2.13663C5.56855 1.79999 5.25137 1.5255 4.88371 1.33592C4.51604 1.14634 4.10848 1.04713 3.69481 1.04651C2.99244 1.04651 2.31883 1.32553 1.82218 1.82218C1.32553 2.31883 1.04651 2.99244 1.04651 3.69481C1.04651 4.39719 1.32553 5.07079 1.82218 5.56745C2.31883 6.0641 2.99244 6.34312 3.69481 6.34312C4.18441 6.34167 4.66539 6.21416 5.09141 5.97287C5.51743 5.73158 5.87412 5.38464 6.12714 4.96548L7.97488 1.88591C8.32146 1.31217 8.80989 0.837296 9.39316 0.507C9.97643 0.176704 10.6349 0.00210287 11.3052 3.51496e-07C12.2848 0.00116726 13.2239 0.390815 13.9165 1.08347C14.6092 1.77613 14.9988 2.71525 15 3.69481Z" fill="black"/>
</svg>
